<?xml version="1.0" encoding="utf-8"?>
<!-- Generator: Adobe Illustrator 23.0.3, SVG Export Plug-In . SVG Version: 6.00 Build 0)  -->
<svg version="1.1" id="Layer_1" xmlns="http://www.w3.org/2000/svg" xmlns:xlink="http://www.w3.org/1999/xlink" x="0px" y="0px"
	 viewBox="0 0 360 360" style="enable-background:new 0 0 360 360;" xml:space="preserve">
<style type="text/css">
	.st0{fill:#FFFFFF;}
</style>
<g>
	<path class="st0" d="M318.8,262.1c0-0.2,0-0.4-0.1-0.6c0,0,0-0.1,0-0.1l-47.6-201c-0.4-1.8-1.9-3-3.7-3.1c-1.8,0-3.4,1.1-4,2.8
		l-21.9,69.8l-59.4-101c-0.7-1.2-2-2-3.4-2c0,0,0,0,0,0c-1.4,0-2.7,0.8-3.4,2L117,128.2L96.1,60.6c-0.5-1.7-2.1-2.9-3.9-2.8
		c-1.8,0.1-3.3,1.3-3.8,3L39.1,261.4c0,0,0,0.1,0,0.1c0,0.2-0.1,0.4-0.1,0.6c0,0.1,0,0.1,0,0.2c0,0.2,0,0.4,0,0.7c0,0.1,0,0.1,0,0.2
		c0,0.2,0.1,0.4,0.1,0.5c0,0.1,0,0.1,0.1,0.2c0.1,0.2,0.2,0.4,0.3,0.6c0,0,0,0,0,0c0,0,0.1,0.1,0.1,0.1c0.1,0.2,0.2,0.3,0.3,0.4
		c0,0,0.1,0.1,0.1,0.1c0.2,0.2,0.3,0.3,0.5,0.4c0,0,0.1,0,0.1,0.1c0.2,0.1,0.3,0.2,0.5,0.3c0.1,0,0.1,0.1,0.2,0.1
		c0.2,0.1,0.4,0.2,0.7,0.2c0,0,0,0,0,0c0,0,0.1,0,0.1,0c0.2,0,0.4,0.1,0.6,0.1c0.1,0,0.1,0,0.2,0c0,0,0.1,0,0.1,0h111.2c0,0,0,0,0,0
		c0,0,0,0,0,0h49.9c0,0,0,0,0,0c0,0,0,0,0,0h110.7c0,0,0,0,0.1,0c0.1,0,0.1,0,0.2,0c0.2,0,0.4,0,0.6-0.1c0,0,0.1,0,0.1,0
		c0,0,0,0,0,0c0.2-0.1,0.4-0.1,0.7-0.2c0.1,0,0.1-0.1,0.2-0.1c0.2-0.1,0.3-0.2,0.5-0.3c0,0,0.1-0.1,0.1-0.1c0.2-0.1,0.3-0.3,0.5-0.4
		c0,0,0.1-0.1,0.1-0.1c0.1-0.1,0.2-0.3,0.3-0.4c0,0,0.1-0.1,0.1-0.1c0,0,0,0,0-0.1c0.1-0.2,0.2-0.4,0.3-0.5c0,0,0-0.1,0-0.1
		c0.1-0.2,0.1-0.4,0.1-0.5c0-0.1,0-0.1,0-0.2c0-0.2,0.1-0.4,0-0.7C318.8,262.2,318.8,262.2,318.8,262.1z M266.8,76.4l38.1,161.1
		L247,139.2L266.8,76.4z M92.7,76.7l18.8,60.9l-58,99L92.7,76.7z M50,258.3L114.7,148l34.1,110.4H50z M201.2,258.3h-44l-37-119.7
		l58.5-99.8l59.6,101.4L201.2,258.3z M209.6,258.3l34.2-108.9l64.1,108.9H209.6z"/>
	<path class="st0" d="M67.9,272.8l-10.8,15.8c-2.1,3-3.6,5.2-4.3,6.6v-22.4h-14v51.5h14v-17.2l4.1-2.5l10.2,19.7h15.7l-16-28.4
		l16.2-23.1H67.9z"/>
	<path class="st0" d="M126.3,288.1c0-10.1-7-15.2-21-15.2H88.4v51.5h13.9v-18.7h3.5l10.9,18.7h15.8l-15-22.4
		C123.4,298.7,126.3,294,126.3,288.1z M104.9,295.2h-2.6v-11.8h2.7c4.8,0,7.2,1.8,7.2,5.3C112.2,293,109.8,295.2,104.9,295.2z"/>
	<path class="st0" d="M160.5,272c-8.2,0-14.4,2.3-18.7,6.8c-4.3,4.5-6.4,11.1-6.4,19.6c0,8.7,2.2,15.3,6.5,19.8
		c4.3,4.5,10.5,6.8,18.6,6.8c8.2,0,14.4-2.3,18.7-6.8c4.3-4.5,6.4-11.1,6.4-19.8c0-8.7-2.1-15.3-6.3-19.8
		C174.9,274.3,168.7,272,160.5,272z M168.2,309.8c-1.7,2.4-4.3,3.6-7.8,3.6c-6.9,0-10.4-5-10.4-14.9c0-10.1,3.5-15.1,10.5-15.1
		c3.4,0,6,1.2,7.7,3.7c1.7,2.5,2.6,6.3,2.6,11.4C170.8,303.7,169.9,307.4,168.2,309.8z"/>
	<path class="st0" d="M243.9,298.7c-1.4,6.4-2.2,11-2.5,13.6c-0.3-2-0.8-5.1-1.6-9.2c-0.8-4.1-1.5-7.7-2.3-10.8l-4.4-19.5h-12.9
		l-4.5,19.5c-0.7,2.7-1.4,6.1-2.2,10.2c-0.8,4.1-1.3,7.4-1.6,9.8c-0.5-3.4-1.3-7.9-2.6-13.6l-5.6-25.8h-13.4l12.8,51.5h16.5
		c3-13.5,4.7-21.2,5.1-23.1c0.4-1.9,0.8-4,1.3-6.3s0.7-4.2,0.9-5.7c0.2,1.9,0.6,4.2,1.1,7s0.9,4.7,1.1,5.6l4.9,22.4h16.5l12.7-51.5
		h-13.4L243.9,298.7z"/>
	<path class="st0" d="M306.4,296.1c0,3.1,0.2,7.3,0.5,12.5h-0.2l-18.7-35.8h-18.2v51.5h12.3v-23.2c0-3-0.2-7.4-0.7-13.1h0.3
		l18.8,36.3h18.3v-51.5h-12.4V296.1z"/>
</g>
</svg>
