<svg id="Layer_1" data-name="Layer 1" xmlns="http://www.w3.org/2000/svg" viewBox="0 0 360 360"><defs><style>.cls-1{fill:#fff;}</style></defs><title>KROWN logo white lines no text</title><path class="cls-1" d="M319.9,295.52a4.11,4.11,0,0,0-.08-.6.38.38,0,0,1,0-.1l-47.56-201a4,4,0,0,0-7.71-.27l-21.92,69.75-59.44-101a4,4,0,0,0-3.45-2h0a4,4,0,0,0-3.45,2L118,161.64,97.13,94a4,4,0,0,0-7.7.22L40.2,294.79a.22.22,0,0,0,0,.08,3.31,3.31,0,0,0-.09.62c0,.05,0,.1,0,.15a5.17,5.17,0,0,0,0,.68l0,.16a5.36,5.36,0,0,0,.14.54.88.88,0,0,1,.05.15,5.69,5.69,0,0,0,.26.56l0,0,.07.11a5.3,5.3,0,0,0,.34.45l.12.14a4.22,4.22,0,0,0,.49.45l.11.07a3.48,3.48,0,0,0,.5.3l.16.08a4.67,4.67,0,0,0,.66.23h0l.09,0a4.07,4.07,0,0,0,.61.08h272.3a4.08,4.08,0,0,0,.61-.09h.14a4.67,4.67,0,0,0,.66-.23l.15-.08a3.1,3.1,0,0,0,.5-.29l.12-.08a3.51,3.51,0,0,0,.5-.45l.11-.12a3.72,3.72,0,0,0,.33-.45l.09-.12a.18.18,0,0,1,.05-.07,4.34,4.34,0,0,0,.25-.54.74.74,0,0,0,0-.14,4.61,4.61,0,0,0,.15-.53l0-.19a3.71,3.71,0,0,0,.05-.67S319.9,295.57,319.9,295.52ZM267.81,109.78l38.11,161.08-57.84-98.31Zm-174.06.34L112.55,171,54.51,270ZM51.07,291.74l64.68-110.39,34.09,110.39Zm151.17,0h-44L121.23,172l58.51-99.84,59.64,101.38Zm8.38,0,34.23-108.91,64.07,108.91Z"/></svg>